<?xml version="1.0" encoding="utf-8"?>
<!-- Generator: Adobe Illustrator 16.0.0, SVG Export Plug-In . SVG Version: 6.00 Build 0)  -->
<!DOCTYPE svg PUBLIC "-//W3C//DTD SVG 1.1//EN" "http://www.w3.org/Graphics/SVG/1.1/DTD/svg11.dtd">
<svg version="1.1" id="Layer_1" xmlns="http://www.w3.org/2000/svg" xmlns:xlink="http://www.w3.org/1999/xlink" x="0px" y="0px"
	 width="256px" height="239px" viewBox="0 0 256 239" enable-background="new 0 0 256 239" xml:space="preserve">
<g>
	<path fill="#27426E" d="M171.216,63.249l-7.969-6.534c-3.45-6.771-4.804-17.586-4.993-19.245l0.077-0.199
		c0,0-0.04,0.033-0.092,0.085c-0.009-0.066-0.013-0.126-0.013-0.126l-0.088,0.188c-1.3,1.044-9.882,7.76-17.104,10.132l-9.32-0.891
		C90.089,39.456,47.238,60.764,28.883,100.99c-21.833,47.86-0.739,104.357,47.114,126.19c47.856,21.839,104.35,0.736,126.189-47.113
		C221.383,137.994,207.393,89.256,171.216,63.249z"/>
	<path fill="#3970AF" d="M180.998,145.492c-14.127,30.951-50.674,44.602-81.634,30.476c-30.956-14.124-44.599-50.671-30.477-81.634
		c14.125-30.956,50.671-44.604,81.633-30.479C181.472,77.982,195.12,114.535,180.998,145.492z"/>
	<path fill="#FFFFFF" d="M176.652,139.925c-12.713,27.858-45.605,40.143-73.467,27.428c-27.859-12.71-40.143-45.602-27.43-73.464
		c12.714-27.862,45.603-40.14,73.463-27.43C177.084,79.175,189.364,112.067,176.652,139.925z"/>
	<path fill="#3970AF" d="M155.37,69.061l7.877,2.61l-6.336-5.233c-2.597-5.138-3.613-13.294-3.762-14.556l0.058-0.148
		c0,0-0.033,0.033-0.071,0.059c-0.009-0.059-0.013-0.092-0.013-0.092l-0.064,0.148c-0.987,0.788-7.512,5.884-12.993,7.692
		l-8.125-0.782l7.445,3.597l-13.183,54.553L155.37,69.061z"/>
</g>
<g>
	<path fill="#27426E" d="M24.663,69.352L9.28,58.285c-0.502-0.355-1.312-0.789-2.346-0.789c-1.238,0-2.347,0.608-3.136,1.709
		c-0.819,1.144-1.027,2.432-0.575,3.633c0.345,0.919,0.98,1.518,1.448,1.855l15.39,11.079c0.7,0.492,1.498,0.754,2.301,0.754
		c1.249,0,2.41-0.607,3.176-1.678C26.868,73.001,26.502,70.693,24.663,69.352z"/>
	<path fill="#27426E" d="M41.319,51.957L28.596,37.903c-0.783-0.869-1.811-1.344-2.895-1.344c-0.666,0-1.672,0.189-2.664,1.083
		c-1.702,1.537-1.824,3.881-0.301,5.555l12.733,14.059c0.773,0.856,1.793,1.326,2.878,1.326c0.967,0,1.919-0.378,2.678-1.071
		c1.046-0.944,1.525-2.217,1.316-3.492C42.19,53.075,41.702,52.375,41.319,51.957z"/>
	<path fill="#27426E" d="M51.843,21.981c-1.099-1.907-3.421-2.559-5.387-1.415c-1.97,1.133-2.582,3.393-1.456,5.366l9.501,16.413
		c0.714,1.248,1.963,1.985,3.337,1.985c0.695,0,1.408-0.197,2.045-0.566c1.225-0.709,1.961-1.849,2.02-3.137
		c0.051-0.957-0.279-1.745-0.561-2.23L51.843,21.981z"/>
	<path fill="#27426E" d="M77.789,11.296c-0.682-2.104-2.798-3.222-4.977-2.504c-1.359,0.441-2.029,1.297-2.351,1.93
		c-0.462,0.912-0.522,1.989-0.183,3.015l5.879,18.038c0.538,1.645,1.975,2.715,3.664,2.715c0.439,0,0.878-0.067,1.312-0.215
		c2.167-0.707,3.235-2.789,2.535-4.948L77.789,11.296z"/>
	<path fill="#27426E" d="M105.424,6.226c-0.22-2.062-1.799-3.5-3.836-3.5l-0.503,0.025c-2.272,0.244-3.746,2.053-3.511,4.312
		l2,18.858c0.222,2.064,1.816,3.505,3.877,3.505l0.466-0.027c1.4-0.147,2.542-0.896,3.121-2.047
		c0.435-0.853,0.451-1.708,0.392-2.267L105.424,6.226z"/>
	<path fill="#27426E" d="M130.039,2.741l-0.495-0.022c-2.045,0-3.625,1.445-3.842,3.507L123.7,25.078
		c-0.238,2.226,1.274,4.074,3.518,4.314l0.502,0.034c2.038,0,3.616-1.449,3.838-3.512l1.997-18.858
		C133.791,4.805,132.316,2.989,130.039,2.741z"/>
	<path fill="#27426E" d="M158.284,8.807c-2.157-0.707-4.278,0.394-4.971,2.49l-5.91,18.015c-0.693,2.118,0.391,4.256,2.536,4.963
		c0.463,0.147,0.914,0.219,1.363,0.219c1.672,0,3.051-1.041,3.605-2.719l5.906-18.01c0.178-0.534,0.336-1.375,0.097-2.301
		C160.581,10.218,159.628,9.252,158.284,8.807z"/>
	<path fill="#27426E" d="M184.633,20.582c-1.964-1.143-4.29-0.486-5.378,1.414l-9.504,16.419c-1.113,1.937-0.483,4.241,1.463,5.375
		c0.674,0.384,1.37,0.573,2.069,0.573c1.35,0,2.587-0.749,3.307-1.996l9.498-16.419c0.553-0.952,0.711-2.015,0.452-3
		C186.351,22.259,185.874,21.289,184.633,20.582z"/>
	<path fill="#27426E" d="M209.381,40.371c-0.034-0.715-0.3-1.766-1.362-2.729c-0.992-0.904-1.996-1.095-2.667-1.095
		c-1.076,0-2.096,0.479-2.891,1.341L189.732,51.95c-0.724,0.795-1.097,1.799-1.044,2.817c0.049,1.037,0.525,2.007,1.338,2.744
		c0.996,0.897,2.001,1.086,2.668,1.086c1.083,0,2.111-0.484,2.889-1.349l12.724-14.044
		C209.048,42.393,209.425,41.388,209.381,40.371z"/>
	<path fill="#27426E" d="M228.095,62.211c0.122-0.707,0.083-1.79-0.752-2.947c-0.791-1.104-1.91-1.704-3.141-1.704
		c-1.035,0-1.838,0.419-2.347,0.782l-15.404,11.07c-0.875,0.622-1.447,1.519-1.614,2.529c-0.168,1.02,0.095,2.071,0.728,2.96
		c0.798,1.101,1.911,1.708,3.149,1.708c1.026,0,1.838-0.426,2.343-0.789l15.404-11.061
		C227.354,64.118,227.937,63.215,228.095,62.211z"/>
	<path fill="#27426E" d="M241.386,88.03c0.707-1.074,0.797-2.429,0.23-3.722c-0.66-1.503-1.97-2.4-3.503-2.4
		c-0.71,0-1.298,0.188-1.679,0.356l-17.361,7.625c-0.986,0.426-1.729,1.189-2.098,2.145c-0.376,0.962-0.339,2.044,0.1,3.041
		c0.658,1.503,1.967,2.408,3.495,2.408c0.558,0,1.138-0.122,1.681-0.363l17.359-7.625C240.128,89.264,240.858,88.83,241.386,88.03z"
		/>
	<path fill="#27426E" d="M228.82,120.394l18.563-3.862c1.08-0.223,1.97-0.809,2.529-1.66c0.398-0.592,0.8-1.597,0.511-3.011
		c-0.398-1.911-1.875-3.152-3.757-3.152c-0.301,0-0.604,0.029-0.881,0.089l-18.576,3.854c-2.18,0.46-3.483,2.463-3.026,4.668
		c0.399,1.919,1.875,3.155,3.753,3.155C228.227,120.476,228.522,120.448,228.82,120.394z"/>
	<path fill="#27426E" d="M252.19,137.763c-0.713-0.721-1.713-1.119-2.81-1.132l-18.98-0.113c-2.214,0-3.898,1.685-3.916,3.917
		c-0.008,1.429,0.586,2.335,1.084,2.845c0.719,0.72,1.71,1.126,2.813,1.126l18.981,0.119c2.251,0,3.896-1.65,3.909-3.917
		C253.286,139.175,252.692,138.275,252.19,137.763z"/>
</g>
</svg>
